P3
10 7
255
0 0 0 0 0 0 0 0 0 123 205 31 123 205 31 123 205 31 123 205 31 0 0 0 0 0 0 246 154 62 
0 0 0 0 0 0 113 103 93 0 0 0 0 0 0 0 0 0 0 0 0 0 0 0 246 154 62 246 154 62 
0 0 0 0 0 0 113 103 93 0 0 0 236 52 124 236 52 124 236 52 124 236 52 124 0 0 0 0 0 0 
103 1 155 0 0 0 113 103 93 0 0 0 236 52 124 0 0 0 0 0 0 0 0 0 226 206 186 226 206 186 
103 1 155 0 0 0 113 103 93 0 0 0 0 0 0 0 0 0 113 103 93 0 0 0 226 206 186 0 0 0 
103 1 155 0 0 0 113 103 93 113 103 93 113 103 93 113 103 93 113 103 93 0 0 0 226 206 186 0 0 0 
103 1 155 0 0 0 0 0 0 0 0 0 0 0 0 0 0 0 0 0 0 0 0 0 226 206 186 226 206 186 
